<?xml version="1.0" encoding="UTF-8"?>
<!DOCTYPE svg PUBLIC "-//W3C//DTD SVG 1.1//EN" "http://www.w3.org/Graphics/SVG/1.1/DTD/svg11.dtd">
<!-- Creator: CorelDRAW -->
<svg xmlns="http://www.w3.org/2000/svg" xml:space="preserve" width="270.933mm" height="264.249mm" version="1.1" style="shape-rendering:geometricPrecision; text-rendering:geometricPrecision; image-rendering:optimizeQuality; fill-rule:evenodd; clip-rule:evenodd"
viewBox="0 0 12835.01 12518.37"
 xmlns:xlink="http://www.w3.org/1999/xlink"
 xmlns:xodm="http://www.corel.com/coreldraw/odm/2003">
 <defs>
  <style type="text/css">
   <![CDATA[
    .fil0 {fill:#008700}
   ]]>
  </style>
 </defs>
 <g id="Layer_x0020_1">
  <metadata id="CorelCorpID_0Corel-Layer"/>
  <path class="fil0" d="M6417.51 0c-3545.67,0 -6417.51,2871.84 -6417.51,6417.51 0,2839.74 1837.01,5238.29 4387.97,6088.61 320.87,56.15 441.2,-136.37 441.2,-304.83 0,-152.41 -8.02,-657.79 -8.02,-1195.26 -1612.4,296.81 -2029.54,-393.08 -2157.89,-754.06 -72.2,-184.5 -385.05,-754.06 -657.79,-906.47 -224.62,-120.33 -545.49,-417.14 -8.03,-425.16 505.38,-8.02 866.36,465.27 986.69,657.79 577.58,970.65 1500.1,697.9 1869.1,529.44 56.15,-417.14 224.61,-697.9 409.12,-858.34 -1427.89,-160.44 -2919.96,-713.95 -2919.96,-3168.64 0,-697.9 248.68,-1275.48 657.79,-1724.71 -64.18,-160.43 -288.79,-818.23 64.18,-1700.64 0,0 537.46,-168.46 1764.81,657.79 513.4,-144.39 1058.89,-216.59 1604.38,-216.59 545.48,0 1090.97,72.2 1604.37,216.59 1227.35,-834.28 1764.82,-657.79 1764.82,-657.79 352.96,882.4 128.35,1540.2 64.17,1700.64 409.12,449.23 657.8,1018.78 657.8,1724.71 0,2462.71 -1500.1,3008.2 -2927.99,3168.64 232.64,200.55 433.18,585.6 433.18,1187.24 0,858.34 -8.02,1548.22 -8.02,1764.81 0,168.46 120.33,369.01 441.2,304.83 2534.91,-850.32 4371.93,-3256.88 4371.93,-6088.61 0,-3545.67 -2871.84,-6417.51 -6417.5,-6417.51z"/>
 </g>
</svg>
