<?xml version="1.0" encoding="UTF-8"?>
<!DOCTYPE svg PUBLIC "-//W3C//DTD SVG 1.1//EN" "http://www.w3.org/Graphics/SVG/1.1/DTD/svg11.dtd">
<!-- Creator: CorelDRAW -->
<svg xmlns="http://www.w3.org/2000/svg" xml:space="preserve" width="211.667mm" height="211.667mm" version="1.1" style="shape-rendering:geometricPrecision; text-rendering:geometricPrecision; image-rendering:optimizeQuality; fill-rule:evenodd; clip-rule:evenodd"
viewBox="0 0 198995.97 198995.97"
 xmlns:xlink="http://www.w3.org/1999/xlink"
 xmlns:xodm="http://www.corel.com/coreldraw/odm/2003">
 <defs>
  <style type="text/css">
   <![CDATA[
    .fil0 {fill:#008700;fill-rule:nonzero}
   ]]>
  </style>
 </defs>
 <g id="Layer_x0020_1">
  <metadata id="CorelCorpID_0Corel-Layer"/>
  <path class="fil0" d="M99497.99 0c-54951.3,0 -99497.99,44546.69 -99497.99,99497.99 0,54951.3 44546.69,99497.99 99497.99,99497.99 54951.3,0 99497.99,-44546.69 99497.99,-99497.99 0,-54951.3 -44546.69,-99497.99 -99497.99,-99497.99zm-86745.66 105716.82l21338.14 0c474.77,10324.6 2035.02,19770.84 4458.33,28254.18l-18961.09 0c-3796.75,-8766.42 -6125.85,-18286.07 -6835.37,-28254.18zm117439.78 -12437.28c-467.81,-9995.65 -1652.86,-19463.88 -3257.02,-28254.18l20383.71 0c2713.24,8343.17 4575.66,17751.23 5137.39,28254.18l-22264.08 0zm-46378.27 40691.46c-1755.24,-9691.14 -2616.59,-19150.72 -2776.23,-28254.18l36921.13 0c-159.17,9103.46 -1020.99,18563.04 -2776.61,28254.18l-31368.29 0zm28658.72 12437.28c-2915.93,11193.76 -7136.69,22604.32 -12975.8,34039.7 -5838.26,-11435.38 -10058.26,-22845.94 -12973.73,-34039.7l25949.52 0zm-31265.54 -53128.75c492.63,-10053 1763.79,-19526.02 3451.53,-28254.18l29678.86 0c1688.21,8728.25 2958.99,18201.27 3452,28254.18l-36582.4 0zm6246.47 -40690.99c3886.53,-15172.05 8688.39,-27142.65 12043.74,-34512.78 3355.73,7370.12 8158.05,19340.82 12045.34,34512.78l-24089.08 0zm36845.92 0c-3967.76,-16442.37 -9062.47,-29650.38 -12844.18,-38186.93 4699.94,3344.36 20314.61,15705.68 30966.2,38186.93l-18122.02 0zm-36760.27 -38187.78c-3781.71,8536.55 -8875.66,21745.03 -12842.95,38187.78l-18124.09 0c10652.81,-22483.32 26268.7,-34844.64 30967.04,-38187.78zm-15478.26 50625.06c-1604.16,8790.39 -2788.83,18258.53 -3256.64,28254.18l-22266.43 0c561.64,-10502.48 2423.68,-19911.01 5137.39,-28254.18l20385.69 0zm-37957.07 28253.71l-21351.49 0c709.52,-9968.1 3038.15,-19487.01 6834.9,-28254.18l19047.59 0c-2441.16,8482.12 -4032.26,17921.87 -4531,28254.18zm12427.51 12437.28l22102.38 0c141.3,9118.88 908.46,18565.95 2534.52,28254.18l-19486.54 0c-2736.37,-8364.7 -4604.89,-17775.58 -5150.36,-28254.18zm27212.5 40691.46c3050.75,12663.86 7582.13,25607.12 14110.07,38602.38 -4405.11,-3153.88 -20418.59,-15749.96 -31276.07,-38602.38l17165.99 0zm37383.21 38630.4c6536.03,-13004.56 11071.45,-25957.23 14125.02,-38630.4l17290.37 0c-10824.95,22969 -26907.05,35460.62 -31415.39,38630.4zm16701.09 -51067.68c1626.53,-9688.22 2393.59,-19135.3 2534.52,-28254.18l22106.42 0c-534.84,10497.68 -2373.29,19906.12 -5069.51,28254.18l-19571.43 0zm37074.94 -28254.18l21340.59 0c-709.9,9968.1 -3038.53,19487.38 -6835.28,28254.18l-18963.16 0c2423.3,-8483.34 3983.18,-17929.57 4457.86,-28254.18zm-12.97 -12437.28c-498.74,-10332.78 -2089.83,-19772.06 -4531,-28254.18l19050.03 0c3797.13,8766.79 6125.38,18285.7 6834.9,28254.18l-21353.94 0zm7833.99 -40690.99l-16748.95 0c-5559.32,-13391.24 -12806.85,-23984.26 -19627.09,-31853.97 14919.34,7009.49 27526.42,18088.27 36376.04,31853.97zm-110080.19 -31852.37c-6819.48,7869.71 -14066.17,18462.35 -19625.11,31852.37l-16746.88 0c8848.87,-13764.85 21454.62,-24842.41 36371.99,-31852.37zm-36371.52 125672.11l16645.34 0c5475.27,13254.36 12620.42,23812.12 19392.81,31690.76 -14771.18,-7018.51 -27255.56,-18029.89 -36038.15,-31690.76zm110415.91 31689.07c6770.79,-7877.8 13914.71,-18435.56 19388.67,-31689.07l16646.66 0c-8781.74,13660.03 -21265.28,24670.65 -36035.33,31689.07z"/>
 </g>
</svg>
